<svg width="66" height="66" viewBox="0 0 66 66" fill="none" xmlns="http://www.w3.org/2000/svg">
<rect width="66" height="66" rx="33" fill="#1A1A1A"/>
<path d="M31.9376 25.9958C28.5296 26.5085 25.9167 29.4491 25.9167 33C25.9167 36.912 29.0881 40.0834 33.0001 40.0834C36.9121 40.0834 40.0834 36.912 40.0834 33C40.0834 29.4491 37.4706 26.5085 34.0626 25.9958V31.5834C34.0626 32.1702 33.5869 32.6459 33.0001 32.6459C32.4133 32.6459 31.9376 32.1702 31.9376 31.5834V25.9958Z" fill="#C2B4A3"/>
<path d="M34.4166 20.9583C34.4166 21.7407 33.7823 22.375 32.9999 22.375C32.2175 22.375 31.5833 21.7407 31.5833 20.9583C31.5833 20.1759 32.2175 19.5416 32.9999 19.5416C33.7823 19.5416 34.4166 20.1759 34.4166 20.9583Z" fill="#C2B4A3"/>
<path d="M45.0417 34.4167C44.2593 34.4167 43.625 33.7824 43.625 33C43.625 32.2176 44.2593 31.5834 45.0417 31.5834C45.8241 31.5834 46.4583 32.2176 46.4583 33C46.4583 33.7824 45.8241 34.4167 45.0417 34.4167Z" fill="#C2B4A3"/>
<path d="M20.9584 34.4167C20.176 34.4167 19.5417 33.7824 19.5417 33C19.5417 32.2176 20.176 31.5834 20.9584 31.5834C21.7408 31.5834 22.3751 32.2176 22.3751 33C22.3751 33.7824 21.7408 34.4167 20.9584 34.4167Z" fill="#C2B4A3"/>
<path d="M25.487 23.4835C26.0402 24.0368 26.0402 24.9338 25.487 25.487C24.9338 26.0402 24.0368 26.0402 23.4835 25.487C22.9303 24.9338 22.9303 24.0368 23.4835 23.4835C24.0368 22.9303 24.9338 22.9303 25.487 23.4835Z" fill="#C2B4A3"/>
<path d="M42.5165 40.5131C43.0698 41.0663 43.0698 41.9633 42.5165 42.5165C41.9633 43.0698 41.0663 43.0698 40.5131 42.5165C39.9598 41.9633 39.9598 41.0663 40.5131 40.5131C41.0663 39.9598 41.9633 39.9598 42.5165 40.5131Z" fill="#C2B4A3"/>
<path d="M42.5165 25.487C41.9633 26.0402 41.0663 26.0402 40.5131 25.487C39.9598 24.9338 39.9598 24.0368 40.5131 23.4835C41.0663 22.9303 41.9633 22.9303 42.5165 23.4835C43.0698 24.0368 43.0698 24.9338 42.5165 25.487Z" fill="#C2B4A3"/>
<path d="M25.487 42.5164C24.9338 43.0697 24.0368 43.0697 23.4835 42.5164C22.9303 41.9632 22.9303 41.0662 23.4835 40.513C24.0368 39.9597 24.9338 39.9597 25.487 40.513C26.0402 41.0662 26.0402 41.9632 25.487 42.5164Z" fill="#C2B4A3"/>
</svg>
